<?xml version="1.0" encoding="utf-8"?>
<!-- Generator: Adobe Illustrator 16.0.3, SVG Export Plug-In . SVG Version: 6.00 Build 0)  -->
<!DOCTYPE svg PUBLIC "-//W3C//DTD SVG 1.1//EN" "http://www.w3.org/Graphics/SVG/1.1/DTD/svg11.dtd">
<svg version="1.1" id="レイヤー_1" xmlns="http://www.w3.org/2000/svg" xmlns:xlink="http://www.w3.org/1999/xlink" x="0px"
	 y="0px" width="48px" height="48px" viewBox="0 0 48 48" enable-background="new 0 0 48 48" xml:space="preserve">
<g>
	<path d="M47.199,0H0.801C0.32,0,0,0.32,0,0.801v46.398C0,47.68,0.32,48,0.801,48h46.398C47.68,48,48,47.68,48,47.199V0.801
		C48,0.32,47.68,0,47.199,0L47.199,0z M46.398,46.398H1.602V1.602h44.796V46.398z M46.398,46.398"/>
	<path d="M4.801,15.199h38.398c0.48,0,0.801-0.32,0.801-0.801V4.801C44,4.32,43.68,4,43.199,4H4.801C4.32,4,4,4.32,4,4.801v9.597
		C4,14.879,4.32,15.199,4.801,15.199L4.801,15.199z M5.602,5.602h36.796v8H5.602V5.602z M5.602,5.602"/>
	<path d="M43.199,17.602h-9.598c-0.48,0-0.801,0.32-0.801,0.796v8.801c0,0.48,0.32,0.801,0.801,0.801h9.598
		C43.68,28,44,27.68,44,27.199v-8.801C44,17.922,43.68,17.602,43.199,17.602L43.199,17.602z M42.398,25.441l-6.797-6.242h6.797
		V25.441z M34.398,20.238l6.723,6.161h-6.723V20.238z M34.398,20.238"/>
	<path d="M43.199,30.398h-9.598c-0.48,0-0.801,0.32-0.801,0.801v12c0,0.48,0.32,0.801,0.801,0.801h9.598
		C43.68,44,44,43.68,44,43.199v-12C44,30.719,43.68,30.398,43.199,30.398L43.199,30.398z M41.52,32l-7.121,8.961V32H41.52z
		 M35.281,42.398l7.117-8.879v8.879H35.281z M35.281,42.398"/>
	<path d="M4.801,32h13.597c0.481,0,0.801-0.32,0.801-0.801V18.398c0-0.476-0.32-0.796-0.801-0.796H4.801
		C4.32,17.602,4,17.922,4,18.398v12.801C4,31.68,4.32,32,4.801,32L4.801,32z M6.879,30.398L17.602,20.32v10.079H6.879z
		 M16.398,19.199L5.602,29.359v-10.16H16.398z M16.398,19.199"/>
	<rect x="21.602" y="17.602" width="8" height="1.598"/>
	<rect x="21.602" y="21.602" width="8" height="1.598"/>
	<rect x="21.602" y="25.602" width="8" height="1.599"/>
	<rect x="21.602" y="29.602" width="8" height="1.599"/>
	<rect x="4.801" y="34.398" width="24.801" height="1.602"/>
	<rect x="4.801" y="38.398" width="24.801" height="1.602"/>
	<rect x="4.801" y="42.398" width="24.801" height="1.602"/>
	<rect x="24" y="10.398" width="2.398" height="1.602"/>
	<rect x="28" y="10.398" width="2.398" height="1.602"/>
	<rect x="20" y="10.398" width="2.398" height="1.602"/>
</g>
</svg>
