<?xml version="1.0" encoding="utf-8"?>
<!-- Generator: Adobe Illustrator 16.0.3, SVG Export Plug-In . SVG Version: 6.00 Build 0)  -->
<!DOCTYPE svg PUBLIC "-//W3C//DTD SVG 1.1//EN" "http://www.w3.org/Graphics/SVG/1.1/DTD/svg11.dtd">
<svg version="1.1" id="Layer_1" xmlns="http://www.w3.org/2000/svg" xmlns:xlink="http://www.w3.org/1999/xlink" x="0px" y="0px"
	 width="90.708px" height="90.708px" viewBox="549.921 375.591 90.708 90.708"
	 enable-background="new 549.921 375.591 90.708 90.708" xml:space="preserve">
<g>
	<g>
		<polygon points="625.056,404.923 625.056,407.011 627.204,407.011 627.204,444.277 563.347,444.277 563.347,407.011 
			565.493,407.011 565.493,404.923 561.259,404.923 561.259,446.365 629.291,446.365 629.291,404.923 		"/>
	</g>
</g>
<g>
	<g>
		<rect x="564.478" y="438.07" width="61.647" height="2.088"/>
	</g>
</g>
<g>
	<g>
		<rect x="566.565" y="441.132" width="2.087" height="2.088"/>
	</g>
</g>
<g>
	<g>
		<rect x="569.766" y="441.132" width="2.087" height="2.088"/>
	</g>
</g>
<g>
	<g>
		<rect x="572.967" y="441.132" width="2.087" height="2.088"/>
	</g>
</g>
<g>
	<g>
		<rect x="588.831" y="452.962" width="12.942" height="2.087"/>
	</g>
</g>
<g>
	<g>
		<polygon points="588.831,447.674 588.831,449.761 593.98,449.761 593.98,451.709 596.067,451.709 596.067,449.761 
			601.773,449.761 601.773,447.674 		"/>
	</g>
</g>
<g>
	<g>
		<path d="M566.578,386.842v38.251h24.01l4.687,4.687l4.687-4.687h24.011v-38.251H566.578z M621.885,423.005h-22.788l-3.822,3.822
			l-3.823-3.822h-22.788V388.93h53.221V423.005z"/>
	</g>
</g>
<g>
	<g>
		<rect x="571.854" y="391.313" width="8.627" height="2.087"/>
	</g>
</g>
<g>
	<g>
		<path d="M596.77,413.579l-2.165-2.163c1.078-1.547,1.712-3.425,1.712-5.449c0-5.267-4.285-9.553-9.552-9.553
			c-1.167,0-2.284,0.211-3.318,0.595l-2.63-2.635h-8.964v2.087h8.099l1.542,1.544c-2.577,1.712-4.28,4.641-4.28,7.96
			c0,5.267,4.285,9.552,9.552,9.552c2.491,0,4.762-0.959,6.464-2.526l2.677,2.673h8.928v-2.087H596.77L596.77,413.579z
			 M585.63,405.537v7.809c-3.58-0.548-6.33-3.648-6.33-7.378c0-2.746,1.491-5.148,3.705-6.445l2.479,2.483l1.478-1.475l-1.841-1.844
			c0.53-0.12,1.08-0.185,1.645-0.185c1.652,0,3.18,0.54,4.417,1.452L585.63,405.537z M593.099,409.913l-1.348-1.346l-1.475,1.477
			l1.476,1.474c-1.101,0.989-2.495,1.656-4.035,1.853v-6.972l4.958-4.984c0.974,1.261,1.556,2.84,1.556,4.553
			C594.231,407.415,593.815,408.767,593.099,409.913z"/>
	</g>
</g>
<g>
	<g>
		<rect x="596.345" y="416.779" width="8.489" height="2.087"/>
	</g>
</g>
<g>
	<g>
		<rect x="601.773" y="393.401" width="2.088" height="2.087"/>
	</g>
</g>
<g>
	<g>
		<rect x="605.948" y="393.401" width="12.803" height="2.087"/>
	</g>
</g>
<g>
	<g>
		<rect x="601.773" y="396.601" width="2.088" height="2.088"/>
	</g>
</g>
<g>
	<g>
		<rect x="605.948" y="396.601" width="12.803" height="2.088"/>
	</g>
</g>
<g>
	<g>
		<rect x="601.773" y="399.663" width="2.088" height="2.087"/>
	</g>
</g>
<g>
	<g>
		<rect x="605.948" y="399.663" width="12.803" height="2.087"/>
	</g>
</g>
<g>
	<g>
		<rect x="571.854" y="418.867" width="8.627" height="2.088"/>
	</g>
</g>
<g>
	<g>
		<rect x="610.123" y="405.09" width="8.628" height="2.087"/>
	</g>
</g>
<g>
	<g>
		<rect x="613.323" y="409.404" width="5.428" height="2.087"/>
	</g>
</g>
<g>
	<g>
		<rect x="615.411" y="413.579" width="3.34" height="2.087"/>
	</g>
</g>
<g>
	<g>
		<rect x="616.524" y="417.754" width="2.227" height="2.087"/>
	</g>
</g>
</svg>
