<?xml version="1.0" encoding="utf-8"?>
<!-- Generator: Adobe Illustrator 16.0.3, SVG Export Plug-In . SVG Version: 6.00 Build 0)  -->
<!DOCTYPE svg PUBLIC "-//W3C//DTD SVG 1.1//EN" "http://www.w3.org/Graphics/SVG/1.1/DTD/svg11.dtd">
<svg version="1.1" id="Layer_1" xmlns="http://www.w3.org/2000/svg" xmlns:xlink="http://www.w3.org/1999/xlink" x="0px" y="0px"
	 width="288px" height="59.107px" viewBox="0 0 288 59.107" enable-background="new 0 0 288 59.107" xml:space="preserve">
<g>
	<path fill="#FFFFFF" d="M55.171,30.395c-2.458-2.457-5.646-3.751-8.871-3.872h-7.104c4.04,0.014,7.233-1.131,9.97-3.869
		c5.172-5.172,5.172-13.592,0-18.77c-5.176-5.178-13.598-5.178-18.774,0c-2.457,2.457-3.75,5.646-3.871,8.871v7.156
		c0.014-4.04-1.131-7.233-3.868-9.97c-5.174-5.172-13.593-5.172-18.771,0c-5.177,5.177-5.177,13.598,0,18.774
		c2.457,2.458,5.646,3.751,8.872,3.872h7.103c-4.04-0.014-7.233,1.131-9.97,3.869c-5.172,5.173-5.172,13.592,0,18.77
		c5.177,5.178,13.598,5.178,18.773,0c2.458-2.458,3.751-5.646,3.872-8.871v-7.155c-0.013,4.04,1.131,7.233,3.869,9.97
		c5.173,5.172,13.592,5.172,18.77,0C60.349,43.992,60.349,35.57,55.171,30.395z M46.57,32.563l0.004,0.004l-0.004,0.008V32.563z
		 M32.564,12.481l0.008,0.004h-0.011L32.564,12.481z M12.483,26.546l-0.004-0.004l0.004-0.008V26.546z M14.401,26.526h-1.904v-0.003
		c-1.589-0.168-3.134-0.857-4.35-2.075c-2.823-2.822-2.823-7.417,0.001-10.241s7.415-2.825,10.239,0
		c1.215,1.21,1.906,2.752,2.075,4.341h-0.005v7.962v6.076C20.458,29.233,17.746,26.526,14.401,26.526z M26.488,46.628l-0.008-0.004
		h0.012L26.488,46.628z M26.472,44.705v1.905h-0.003c-0.168,1.589-0.857,3.134-2.075,4.35c-2.822,2.823-7.416,2.823-10.241-0.001
		c-2.825-2.825-2.825-7.416,0-10.24c1.21-1.215,2.752-1.905,4.341-2.074v0.004h7.961h6.076
		C29.179,38.648,26.472,41.361,26.472,44.705z M32.532,32.586h-6.011v-6.063h6.011V32.586z M32.598,20.46h-6.077
		c3.352,0,6.059-2.713,6.059-6.057v-1.904h0.004c0.168-1.59,0.858-3.135,2.075-4.35c2.822-2.825,7.416-2.825,10.241,0
		c2.825,2.826,2.825,7.416,0,10.24c-1.21,1.215-2.752,1.907-4.341,2.075V20.46H32.598z M50.905,44.901
		c-2.825,2.825-7.416,2.825-10.24,0c-1.215-1.21-1.906-2.752-2.075-4.341h0.004L38.583,32.6v-6.076l-0.004-0.001h0.004
		c0,3.352,2.725,6.06,6.068,6.06h1.906v0.004c1.589,0.168,3.134,0.857,4.349,2.074C53.729,37.482,53.729,42.076,50.905,44.901z"/>
	<g>
		<path fill="#FFFFFF" d="M93.422,21.701l-4.685,3.896c-1.463-1.567-3.026-2.417-5.141-2.422c-3.36-0.005-6.053,2.628-6.061,6.632
			c-0.005,4.033,2.652,6.647,6.013,6.652c2.086,0.002,3.88-0.94,5.251-2.431l4.616,3.963c-2.268,2.907-5.653,4.52-9.684,4.513
			c-7.685-0.017-12.828-5.397-12.813-12.708c0.013-7.295,5.173-12.678,12.858-12.663C87.81,17.139,91.214,18.783,93.422,21.701z"/>
		<path fill="#FFFFFF" d="M103.625,20.398c1.721-2.384,4.282-3.223,6.92-3.218c5.472,0.01,9.372,3.823,9.36,9.417l-0.028,15.309
			h-6.467V28.676c0.005-3.484-1.73-5.402-4.692-5.407c-2.785-0.005-5.127,1.805-5.135,5.437v13.213l-6.491-0.013V6.059l6.557,0.014
			L103.625,20.398z"/>
		<path fill="#FFFFFF" d="M148.465,41.899h-6.389l0.005-2.672c-1.571,1.937-3.912,3.274-7.222,3.268
			c-6.643-0.012-11.655-5.467-11.643-12.705c0.012-7.236,5.046-12.675,11.689-12.662c3.309,0.004,5.622,1.351,7.209,3.317
			l0.004-2.659l6.345,0.009V41.899z M129.856,29.802c-0.006,3.685,2.403,6.646,6.211,6.652c3.705,0.007,6.223-2.826,6.229-6.631
			c0.005-3.806-2.498-6.644-6.207-6.648C132.285,23.165,129.863,26.118,129.856,29.802z"/>
		<path fill="#FFFFFF" d="M171.762,23.594h-8.732l-0.016,8.904c-0.004,3.012,1.586,4.106,3.601,4.109
			c1.539,0.004,3.21-0.761,4.529-1.557l1.794,5.462c-1.984,1.242-4.285,2.144-7.405,2.139c-5.969-0.013-9.026-3.397-9.014-9.643
			l0.017-9.415h-4.652v-5.777h4.663l0.009-5.09h6.486v5.09h6.8L171.762,23.594z"/>
		<path fill="#FFFFFF" d="M202.882,34.707l5.205-16.906l6.793,0.012l-8.205,24.092l-7.414-0.016l-5.32-16.303l-5.328,16.324
			l-7.361-0.011l-8.066-24.111l6.894,0.004l5.09,16.805l5.436-16.809h6.834L202.882,34.707z"/>
		<path fill="#FFFFFF" d="M241.207,29.842c-0.014,7.265-5.568,12.675-13.086,12.66c-7.482-0.011-12.996-5.443-12.98-12.707
			c0.012-7.261,5.541-12.673,13.027-12.66C235.683,17.15,241.22,22.58,241.207,29.842z M221.757,29.806
			c-0.008,3.907,2.721,6.646,6.375,6.652c3.664,0.008,6.428-2.724,6.434-6.627c0.008-3.907-2.748-6.648-6.41-6.652
			C224.503,23.171,221.765,25.903,221.757,29.806z"/>
		<path fill="#FFFFFF" d="M261.009,17.694l-0.984,6.443c-1.07-0.479-2.611-0.775-3.93-0.778c-3.012-0.006-5.076,1.829-5.084,5.412
			v13.134l-6.516-0.012V17.79l6.334,0.013l-0.002,2.636c1.521-2.263,3.838-3.275,6.793-3.271
			C259.017,17.17,260.109,17.37,261.009,17.694z"/>
		<path fill="#FFFFFF" d="M270.916,26.354l2.287,0.005l6.809-8.573h7.959l-9.525,11.341L288,41.905l-7.984-0.016l-6.922-9.765
			l-2.207-0.002v9.782h-6.492V6.059h6.521V26.354z"/>
	</g>
</g>
</svg>
