<?xml version="1.0" encoding="utf-8"?>
<!-- Generator: Adobe Illustrator 16.0.3, SVG Export Plug-In . SVG Version: 6.00 Build 0)  -->
<!DOCTYPE svg PUBLIC "-//W3C//DTD SVG 1.1//EN" "http://www.w3.org/Graphics/SVG/1.1/DTD/svg11.dtd">
<svg version="1.1" id="Layer_1" xmlns="http://www.w3.org/2000/svg" xmlns:xlink="http://www.w3.org/1999/xlink" x="0px" y="0px"
	 width="90.708px" height="90.708px" viewBox="549.921 375.591 90.708 90.708"
	 enable-background="new 549.921 375.591 90.708 90.708" xml:space="preserve">
<g>
	<g>
		<path d="M600.888,386.626h-38.364c-0.698,0-1.265,0.567-1.265,1.265v50.294c0,0.7,0.567,1.266,1.265,1.266h38.364
			c0.697,0,1.266-0.565,1.266-1.266v-50.294C602.154,387.193,601.585,386.626,600.888,386.626z M599.623,436.919h-35.833l0,0
			v-32.336h35.833V436.919z M599.623,402.052h-35.833v-12.896h35.833V402.052L599.623,402.052z"/>
	</g>
</g>
<g>
	<g>
		<path d="M628.025,386.626h-21.56c-0.702,0-1.266,0.567-1.266,1.265v12.844c0,0.699,0.563,1.265,1.266,1.265h21.56
			c0.701,0,1.266-0.566,1.266-1.265v-12.844C629.291,387.193,628.726,386.626,628.025,386.626z M626.76,399.469h-19.029v-10.313
			h19.028L626.76,399.469L626.76,399.469z"/>
	</g>
</g>
<g>
	<g>
		<path d="M628.025,404.595h-21.56c-0.702,0-1.266,0.568-1.266,1.265v12.843c0,0.701,0.563,1.265,1.266,1.265h21.56
			c0.701,0,1.266-0.564,1.266-1.265V405.86C629.291,405.164,628.726,404.595,628.025,404.595z M626.76,417.438h-19.029v-10.313
			h19.028L626.76,417.438L626.76,417.438z"/>
	</g>
</g>
<g>
	<g>
		<path d="M628.025,422.656h-21.56c-0.702,0-1.266,0.568-1.266,1.265V454c0,0.699,0.563,1.266,1.266,1.266h21.56
			c0.701,0,1.266-0.566,1.266-1.266v-30.079C629.291,423.225,628.726,422.656,628.025,422.656z M626.76,452.734h-19.029v-27.548
			h19.028L626.76,452.734L626.76,452.734z"/>
	</g>
</g>
<g>
	<g>
		<path d="M600.864,443.526c-0.215-0.43-0.655-0.704-1.139-0.704h-27.814c-0.251,0-0.496,0.074-0.704,0.215l-7.392,4.956
			c-0.35,0.235-0.56,0.628-0.56,1.049c0,0.422,0.21,0.816,0.56,1.052l7.392,4.958c0.208,0.14,0.453,0.214,0.704,0.214h27.814
			c0.483,0,0.924-0.274,1.139-0.703C602.571,451.104,602.571,446.98,600.864,443.526z M567.899,449.787l-1.108-0.744l1.108-0.74
			c0.053,0.239,0.081,0.49,0.081,0.739C567.979,449.296,567.952,449.547,567.899,449.787z M571.26,452.038l-1.172-0.783
			c0.277-0.699,0.422-1.447,0.422-2.213c0-0.76-0.146-1.51-0.422-2.208l1.172-0.785C571.8,448.005,571.8,450.085,571.26,452.038z
			 M593.205,452.734h-19.513c0.221-0.797,0.369-1.608,0.445-2.427h19.693C593.725,451.139,593.516,451.951,593.205,452.734z
			 M574.138,447.777c-0.076-0.816-0.224-1.628-0.445-2.425h19.513c0.311,0.781,0.52,1.599,0.625,2.425H574.138z M598.906,452.734
			h-3.017c0.733-2.396,0.733-4.985,0-7.382h3.017C599.85,447.712,599.85,450.375,598.906,452.734z"/>
	</g>
</g>
<g>
	<g>
		<path d="M617.246,389.777c-2.504,0-4.538,2.035-4.538,4.536c0,2.501,2.034,4.536,4.538,4.536c2.501,0,4.533-2.034,4.533-4.536
			C621.779,391.812,619.746,389.777,617.246,389.777z M617.246,396.318c-1.104,0-2.009-0.899-2.009-2.006
			c0-1.105,0.903-2.005,2.009-2.005c1.104,0,2.003,0.9,2.003,2.005C619.249,395.419,618.35,396.318,617.246,396.318z"/>
	</g>
</g>
<g>
	<g>
		<path d="M612.867,408.283c-2.229,0-4.041,1.815-4.041,4.044c0,2.231,1.813,4.045,4.041,4.045c2.231,0,4.05-1.814,4.05-4.045
			C616.917,410.099,615.098,408.283,612.867,408.283z M612.867,413.842c-0.832,0-1.512-0.679-1.512-1.515
			c0-0.834,0.68-1.513,1.512-1.513c0.84,0,1.52,0.679,1.52,1.513C614.386,413.163,613.707,413.842,612.867,413.842z"/>
	</g>
</g>
<g>
	<g>
		<path d="M617.246,426.398c-2.504,0-4.538,2.035-4.538,4.541c0,2.497,2.034,4.53,4.538,4.53c2.501,0,4.533-2.033,4.533-4.53
			C621.779,428.434,619.746,426.398,617.246,426.398z M617.246,432.939c-1.104,0-2.009-0.897-2.009-2
			c0-1.107,0.903-2.012,2.009-2.012c1.104,0,2.003,0.904,2.003,2.012C619.249,432.042,618.35,432.939,617.246,432.939z"/>
	</g>
</g>
<g>
	<g>
		<path d="M569.777,391.022c-2.501,0-4.536,2.035-4.536,4.536c0,2.5,2.035,4.535,4.536,4.535c2.5,0,4.536-2.035,4.536-4.535
			C574.313,393.057,572.277,391.022,569.777,391.022z M569.777,397.563c-1.106,0-2.006-0.9-2.006-2.005
			c0-1.106,0.9-2.006,2.006-2.006c1.105,0,2.005,0.899,2.005,2.006C571.782,396.663,570.882,397.563,569.777,397.563z"/>
	</g>
</g>
<g>
	<g>
		<path d="M623.57,409.167h-3.414c-0.701,0-1.266,0.568-1.266,1.265c0,0.7,0.564,1.265,1.266,1.265h3.414
			c0.696,0,1.265-0.565,1.265-1.265C624.834,409.735,624.266,409.167,623.57,409.167z"/>
	</g>
</g>
<g>
	<g>
		<path d="M623.57,412.867h-3.414c-0.701,0-1.266,0.568-1.266,1.265c0,0.702,0.564,1.265,1.266,1.265h3.414
			c0.696,0,1.265-0.563,1.265-1.265C624.834,413.436,624.266,412.867,623.57,412.867z"/>
	</g>
</g>
<g>
	<g>
		<path d="M622.9,437.435h-11.313c-0.696,0-1.265,0.564-1.265,1.266c0,0.7,0.568,1.266,1.265,1.266H622.9
			c0.701,0,1.266-0.565,1.266-1.266C624.166,437.999,623.601,437.435,622.9,437.435z"/>
	</g>
</g>
<g>
	<g>
		<path d="M622.9,442.193h-11.313c-0.696,0-1.265,0.566-1.265,1.266s0.568,1.266,1.265,1.266H622.9c0.701,0,1.266-0.566,1.266-1.266
			S623.601,442.193,622.9,442.193z"/>
	</g>
</g>
<g>
	<g>
		<path d="M622.9,446.953h-11.313c-0.696,0-1.265,0.566-1.265,1.266s0.568,1.265,1.265,1.265H622.9c0.701,0,1.266-0.565,1.266-1.265
			S623.601,446.953,622.9,446.953z"/>
	</g>
</g>
<g>
	<g>
		<path d="M596.25,412.83h-29.092c-0.699,0-1.265,0.565-1.265,1.266c0,0.698,0.566,1.266,1.265,1.266h29.092
			c0.701,0,1.266-0.568,1.266-1.266C597.515,413.395,596.951,412.83,596.25,412.83z"/>
	</g>
</g>
<g>
	<g>
		<path d="M596.25,418.219h-29.092c-0.699,0-1.265,0.564-1.265,1.265c0,0.697,0.566,1.265,1.265,1.265h29.092
			c0.701,0,1.266-0.568,1.266-1.265C597.515,418.783,596.951,418.219,596.25,418.219z"/>
	</g>
</g>
<g>
	<g>
		<path d="M596.25,423.605h-29.092c-0.699,0-1.265,0.563-1.265,1.266c0,0.701,0.566,1.266,1.265,1.266h29.092
			c0.701,0,1.266-0.564,1.266-1.266C597.515,424.169,596.951,423.605,596.25,423.605z"/>
	</g>
</g>
<g>
	<g>
		<path d="M596.25,431.506h-4.65c-0.701,0-1.265,0.567-1.265,1.266c0,0.7,0.564,1.266,1.265,1.266h4.65
			c0.701,0,1.266-0.565,1.266-1.266C597.515,432.073,596.951,431.506,596.25,431.506z"/>
	</g>
</g>
<g>
	<g>
		<path d="M588.186,407.441h-12.962c-0.699,0-1.265,0.566-1.265,1.265c0,0.7,0.566,1.266,1.265,1.266h12.962
			c0.697,0,1.265-0.565,1.265-1.266C589.451,408.007,588.883,407.441,588.186,407.441z"/>
	</g>
</g>
</svg>
