<?xml version="1.0" encoding="utf-8"?>
<!-- Generator: Adobe Illustrator 16.0.3, SVG Export Plug-In . SVG Version: 6.00 Build 0)  -->
<!DOCTYPE svg PUBLIC "-//W3C//DTD SVG 1.1//EN" "http://www.w3.org/Graphics/SVG/1.1/DTD/svg11.dtd">
<svg version="1.1" id="Capa_1" xmlns="http://www.w3.org/2000/svg" xmlns:xlink="http://www.w3.org/1999/xlink" x="0px" y="0px"
	 width="15.938px" height="15.938px" viewBox="70.525 38.573 15.938 15.938" enable-background="new 70.525 38.573 15.938 15.938"
	 xml:space="preserve">
<g>
	<path d="M86.463,52.467c0,1.12-0.923,2.044-2.044,2.044H72.57c-1.121,0-2.045-0.924-2.045-2.044v-11.85
		c0-1.12,0.924-2.044,2.045-2.044h11.849c1.121,0,2.044,0.924,2.044,2.044V52.467z M84.658,45.317h-1.401
		c0.136,0.426,0.208,0.893,0.208,1.359c0,2.656-2.221,4.804-4.96,4.804c-2.729,0-4.949-2.147-4.949-4.804
		c0-0.467,0.073-0.934,0.208-1.359h-1.463v6.724c0,0.354,0.279,0.633,0.633,0.633h11.092c0.353,0,0.633-0.279,0.633-0.633V45.317z
		 M78.505,43.408c-1.764,0-3.196,1.391-3.196,3.103s1.433,3.103,3.196,3.103c1.774,0,3.206-1.391,3.206-3.103
		S80.279,43.408,78.505,43.408z M84.658,41.063c0-0.395-0.322-0.716-0.716-0.716h-1.806c-0.395,0-0.716,0.321-0.716,0.716v1.712
		c0,0.395,0.321,0.716,0.716,0.716h1.806c0.394,0,0.716-0.321,0.716-0.716V41.063z"/>
</g>
</svg>
