<?xml version="1.0" encoding="utf-8"?>
<!-- Generator: Adobe Illustrator 16.0.3, SVG Export Plug-In . SVG Version: 6.00 Build 0)  -->
<!DOCTYPE svg PUBLIC "-//W3C//DTD SVG 1.1//EN" "http://www.w3.org/Graphics/SVG/1.1/DTD/svg11.dtd">
<svg version="1.1" id="Layer_1" xmlns="http://www.w3.org/2000/svg" xmlns:xlink="http://www.w3.org/1999/xlink" x="0px" y="0px"
	 width="90.708px" height="90.708px" viewBox="549.921 375.591 90.708 90.708"
	 enable-background="new 549.921 375.591 90.708 90.708" xml:space="preserve">
<g>
	<g>
		<path d="M591.474,398.359h-0.15c-0.83,0-1.503,0.673-1.503,1.504c0,0.83,0.673,1.503,1.503,1.503h0.15
			c0.831,0,1.504-0.673,1.504-1.503C592.978,399.033,592.305,398.359,591.474,398.359z"/>
	</g>
</g>
<g>
	<g>
		<path d="M603.587,429.726h-3.24c-0.83,0-1.504,0.673-1.504,1.503c0,0.831,0.674,1.505,1.504,1.505h3.24
			c0.831,0,1.505-0.674,1.505-1.505C605.092,430.398,604.418,429.726,603.587,429.726z"/>
	</g>
</g>
<g>
	<g>
		<path d="M603.587,412.148h-3.24c-0.83,0-1.504,0.673-1.504,1.504s0.674,1.504,1.504,1.504h3.24c0.831,0,1.505-0.673,1.505-1.504
			S604.418,412.148,603.587,412.148z"/>
	</g>
</g>
<g>
	<g>
		<path d="M603.587,437.512h-3.24c-0.83,0-1.504,0.673-1.504,1.504c0,0.83,0.674,1.504,1.504,1.504h3.24
			c0.831,0,1.505-0.674,1.505-1.504C605.092,438.185,604.418,437.512,603.587,437.512z"/>
	</g>
</g>
<g>
	<g>
		<path d="M603.587,445.298h-3.24c-0.83,0-1.504,0.674-1.504,1.503c0,0.831,0.674,1.504,1.504,1.504h3.24
			c0.831,0,1.505-0.673,1.505-1.504C605.092,445.972,604.418,445.298,603.587,445.298z"/>
	</g>
</g>
<g>
	<g>
		<path d="M627.783,416.288h-3.959h-5.51v-6.638v-9.787c0-3.582-2.302-6.694-5.728-7.745l-23.83-7.301
			c-0.794-0.243-1.635,0.203-1.878,0.997c-0.243,0.794,0.204,1.635,0.998,1.878l18.674,5.721v4.945h-9.93h-0.973
			c-0.831,0-1.504,0.673-1.504,1.504s0.673,1.503,1.504,1.503h0.973c4.055,0,7.438,2.928,8.147,6.78h-16.138v-8.283
			c0-0.831-0.673-1.504-1.504-1.504s-1.504,0.673-1.504,1.504v8.283h-5.446c-3.896,0-7.067,3.17-7.067,7.068v9.553l-9.613-5.397
			c-0.724-0.407-1.641-0.149-2.047,0.575c-0.406,0.724-0.149,1.641,0.575,2.047l11.084,6.223v7.099l-9.612-5.396
			c-0.724-0.406-1.641-0.149-2.047,0.574c-0.407,0.725-0.149,1.642,0.575,2.048l11.085,6.224v11.93v1.813
			c0,2.553,2.079,4.631,4.633,4.631c2.553,0,4.631-2.078,4.631-4.631v-0.308h4.753h21.925v0.308c0,2.553,2.077,4.631,4.632,4.631
			s4.633-2.078,4.633-4.631v-1.813v-7.785v-7.786v-7.786v-1.163c1.702-0.302,3.271-1.112,4.519-2.36
			c1.247-1.248,2.059-2.815,2.36-4.518h2.59c0.829,0,1.502-0.673,1.502-1.504S628.613,416.288,627.783,416.288z M576.115,415.214
			c0-2.239,1.822-4.061,4.06-4.061h5.446v8.024h-9.506V415.214z M579.365,452.506c0,0.896-0.728,1.624-1.624,1.624
			c-0.896,0-1.626-0.728-1.626-1.624v-0.308h3.25V452.506z M585.621,449.19h-4.752l0,0h-4.753v-11.283c0-0.002,0-0.004,0-0.005
			v-10.543c0-0.001,0-0.003,0-0.005v-5.169h9.506L585.621,449.19L585.621,449.19z M609.556,394.336l2.149,0.658
			c1.655,0.507,2.894,1.78,3.378,3.365h-5.527V394.336z M588.629,411.154h17.779h8.899v6.638v7.012v1.028h-26.678V411.154z
			 M588.629,449.19v-4.778h26.678v4.778h-4.754H588.629z M615.307,452.506c0,0.896-0.729,1.624-1.626,1.624
			c-0.896,0-1.623-0.728-1.623-1.624v-0.308h3.249V452.506L615.307,452.506z M615.307,441.405h-26.678v-4.779h26.678V441.405z
			 M615.307,433.618h-26.678v-4.778h26.678V433.618z M615.307,408.146h-7.499c-0.356-2.665-1.644-5.038-3.525-6.78h3.771h7.254
			V408.146z M620.707,421.687c-0.676,0.676-1.496,1.154-2.393,1.407v-3.798h3.799C621.86,420.19,621.382,421.01,620.707,421.687z"/>
	</g>
</g>
<g>
	<g>
		<path d="M582.904,412.766c-0.831,0-1.504,0.673-1.504,1.504v1.599c0,0.831,0.673,1.504,1.504,1.504
			c0.83,0,1.503-0.673,1.503-1.504v-1.599C584.408,413.439,583.734,412.766,582.904,412.766z"/>
	</g>
</g>
</svg>
