<?xml version="1.0" encoding="utf-8"?>
<!-- Generator: Adobe Illustrator 16.0.3, SVG Export Plug-In . SVG Version: 6.00 Build 0)  -->
<!DOCTYPE svg PUBLIC "-//W3C//DTD SVG 1.1//EN" "http://www.w3.org/Graphics/SVG/1.1/DTD/svg11.dtd">
<svg version="1.1" id="レイヤー_1" xmlns="http://www.w3.org/2000/svg" xmlns:xlink="http://www.w3.org/1999/xlink" x="0px"
	 y="0px" width="592.921px" height="51.297px" viewBox="0 0 592.921 51.297" enable-background="new 0 0 592.921 51.297"
	 xml:space="preserve">
<g>
	<path d="M20.617,0.246l-5.195,17.309c-0.656,1.732-1.522,4.621-2.598,8.668v16.57H9.023v-16.57
		c-0.255-1.385-0.647-2.844-1.176-4.375c-0.875-2.625-1.349-4.056-1.422-4.293L1.23,0.246c0-0.018,0-0.1,0-0.246h3.855l5.879,21.41
		L16.789,0h3.828C20.617,0.128,20.617,0.21,20.617,0.246z"/>
	<path d="M43.34,39.758c0,0.894-0.287,1.623-0.861,2.188c-0.574,0.565-1.308,0.848-2.201,0.848H28.301
		c-0.894,0-1.623-0.282-2.188-0.848c-0.565-0.564-0.848-1.294-0.848-2.188V3.035c0-0.893,0.282-1.622,0.848-2.188
		C26.678,0.283,27.407,0,28.301,0h11.977c0.893,0,1.627,0.283,2.201,0.848c0.574,0.565,0.861,1.294,0.861,2.188V39.758z
		 M39.539,39.43V3.363H29.066V39.43H39.539z"/>
	<path d="M67.922,39.758c0,0.894-0.287,1.623-0.861,2.188c-0.574,0.565-1.308,0.848-2.201,0.848H53.211
		c-0.894,0-1.623-0.282-2.188-0.848c-0.565-0.564-0.848-1.294-0.848-2.188V0h3.801v39.43h10.145V0h3.801V39.758z"/>
	<path d="M92.969,42.793h-3.992L81.02,19.879l0.52-0.766h6.781V3.363h-9.762v39.43h-3.801V0h14.328c0.893,0,1.622,0.283,2.188,0.848
		c0.565,0.565,0.848,1.294,0.848,2.188v16.242c0,2.06-1.386,3.09-4.156,3.09c-0.273,0-0.675-0.014-1.203-0.041
		c-0.529-0.027-0.912-0.041-1.148-0.041C88.074,29.104,90.526,35.939,92.969,42.793z"/>
	<path d="M126.301,39.758c0,0.894-0.278,1.623-0.834,2.188c-0.556,0.565-1.281,0.848-2.174,0.848H112.52
		c-0.894,0-1.627-0.282-2.201-0.848c-0.574-0.564-0.861-1.294-0.861-2.188V28.902h3.801V39.43h9.242V29.23l-11.813-14.273
		c-0.82-0.984-1.23-2.069-1.23-3.254V3.035c0-0.893,0.287-1.622,0.861-2.188C110.893,0.283,111.626,0,112.52,0h10.773
		c0.893,0,1.618,0.283,2.174,0.848c0.556,0.565,0.834,1.294,0.834,2.188v9.953H122.5V3.363h-9.242v9.023l11.867,14.273
		c0.784,0.948,1.176,2.015,1.176,3.199V39.758z"/>
	<path d="M150.773,39.758c0,0.894-0.287,1.623-0.861,2.188c-0.574,0.565-1.308,0.848-2.201,0.848h-11.648
		c-0.894,0-1.623-0.282-2.188-0.848c-0.565-0.564-0.848-1.294-0.848-2.188V0h3.801v39.43h10.145V0h3.801V39.758z"/>
	<path d="M174.754,39.758c0,0.894-0.292,1.623-0.875,2.188c-0.583,0.565-1.322,0.848-2.215,0.848h-11.02
		c-0.894,0-1.623-0.282-2.188-0.848c-0.565-0.564-0.848-1.294-0.848-2.188V3.035c0-0.893,0.282-1.622,0.848-2.188
		C159.022,0.283,159.751,0,160.645,0h11.02c0.893,0,1.631,0.283,2.215,0.848c0.583,0.565,0.875,1.294,0.875,2.188v9.953h-3.828
		V3.363h-9.516V39.43h9.516V28.902h3.828V39.758z"/>
	<path d="M198.543,39.758c0,0.894-0.292,1.623-0.875,2.188c-0.583,0.565-1.322,0.848-2.215,0.848h-11.02
		c-0.894,0-1.623-0.282-2.188-0.848c-0.565-0.564-0.848-1.294-0.848-2.188V3.035c0-0.893,0.282-1.622,0.848-2.188
		C182.811,0.283,183.54,0,184.434,0h11.02c0.893,0,1.631,0.283,2.215,0.848c0.583,0.565,0.875,1.294,0.875,2.188v9.953h-3.828V3.363
		h-9.516V39.43h9.516V28.902h3.828V39.758z"/>
	<path d="M219.242,42.793h-14.055V0h13.891v3.363h-10.09v15.969h9.188v3.418h-9.188v16.68h10.254V42.793z"/>
	<path d="M241.855,39.758c0,0.894-0.278,1.623-0.834,2.188c-0.556,0.565-1.281,0.848-2.174,0.848h-10.773
		c-0.894,0-1.627-0.282-2.201-0.848c-0.574-0.564-0.861-1.294-0.861-2.188V28.902h3.801V39.43h9.242V29.23l-11.813-14.273
		c-0.82-0.984-1.23-2.069-1.23-3.254V3.035c0-0.893,0.287-1.622,0.861-2.188C226.447,0.283,227.181,0,228.074,0h10.773
		c0.893,0,1.618,0.283,2.174,0.848c0.556,0.565,0.834,1.294,0.834,2.188v9.953h-3.801V3.363h-9.242v9.023L240.68,26.66
		c0.784,0.948,1.176,2.015,1.176,3.199V39.758z"/>
	<path d="M265.262,39.758c0,0.894-0.278,1.623-0.834,2.188c-0.556,0.565-1.281,0.848-2.174,0.848H251.48
		c-0.894,0-1.627-0.282-2.201-0.848c-0.574-0.564-0.861-1.294-0.861-2.188V28.902h3.801V39.43h9.242V29.23l-11.813-14.273
		c-0.82-0.984-1.23-2.069-1.23-3.254V3.035c0-0.893,0.287-1.622,0.861-2.188C249.854,0.283,250.587,0,251.48,0h10.773
		c0.893,0,1.618,0.283,2.174,0.848c0.556,0.565,0.834,1.294,0.834,2.188v9.953h-3.801V3.363h-9.242v9.023l11.867,14.273
		c0.784,0.948,1.176,2.015,1.176,3.199V39.758z"/>
	<path d="M286.973,42.793h-3.801V0h3.801V42.793z"/>
	<path d="M310.789,39.758c0,0.894-0.277,1.623-0.834,2.188c-0.556,0.565-1.28,0.848-2.174,0.848h-10.773
		c-0.894,0-1.627-0.282-2.201-0.848c-0.574-0.564-0.861-1.294-0.861-2.188V28.902h3.8V39.43h9.242V29.23l-11.812-14.273
		c-0.82-0.984-1.23-2.069-1.23-3.254V3.035c0-0.893,0.287-1.622,0.861-2.188C295.381,0.283,296.114,0,297.008,0h10.773
		c0.894,0,1.618,0.283,2.174,0.848c0.557,0.565,0.834,1.294,0.834,2.188v9.953h-3.801V3.363h-9.242v9.023l11.867,14.273
		c0.784,0.948,1.176,2.015,1.176,3.199V39.758z"/>
	<path d="M346.554,39.758c0,0.894-0.287,1.623-0.861,2.188c-0.574,0.565-1.308,0.848-2.201,0.848h-11.977
		c-0.893,0-1.622-0.282-2.188-0.848c-0.564-0.564-0.848-1.294-0.848-2.188V3.035c0-0.893,0.283-1.622,0.848-2.188
		C329.893,0.283,330.623,0,331.515,0h11.977c0.894,0,1.627,0.283,2.201,0.848c0.574,0.565,0.861,1.294,0.861,2.188V39.758z
		 M342.753,39.43V3.363h-10.473V39.43H342.753z"/>
	<path d="M371.136,39.758c0,0.894-0.287,1.623-0.861,2.188c-0.574,0.565-1.308,0.848-2.201,0.848h-11.648
		c-0.893,0-1.622-0.282-2.188-0.848c-0.564-0.564-0.848-1.294-0.848-2.188V0h3.801v39.43h10.145V0h3.801V39.758z"/>
	<path d="M396.183,42.793h-3.992l-7.957-22.914l0.52-0.766h6.781V3.363h-9.762v39.43h-3.801V0H392.3
		c0.894,0,1.623,0.283,2.188,0.848c0.565,0.565,0.848,1.294,0.848,2.188v16.242c0,2.06-1.385,3.09-4.156,3.09
		c-0.273,0-0.674-0.014-1.203-0.041c-0.528-0.027-0.911-0.041-1.148-0.041C391.289,29.104,393.741,35.939,396.183,42.793z"/>
	<path d="M429.98,39.758c0,0.894-0.282,1.623-0.848,2.188c-0.564,0.565-1.294,0.848-2.188,0.848h-14.109V0h14
		c0.894,0,1.623,0.283,2.188,0.848c0.565,0.565,0.848,1.294,0.848,2.188V15.75c0,1.13-0.51,2.078-1.531,2.844
		c-1.002,0.602-2.005,1.203-3.008,1.805l3.227,2.078c0.948,0.583,1.422,1.495,1.422,2.734V39.758z M426.042,16.242V3.363h-9.406
		v15.449h5.605L426.042,16.242z M426.152,39.43V24.637l-3.855-2.516h-5.66V39.43H426.152z"/>
	<path d="M454.371,39.758c0,0.894-0.287,1.623-0.861,2.188c-0.574,0.565-1.308,0.848-2.201,0.848H439.66
		c-0.893,0-1.622-0.282-2.188-0.848c-0.564-0.564-0.848-1.294-0.848-2.188V0h3.801v39.43h10.145V0h3.801V39.758z"/>
	<path d="M477.886,39.758c0,0.894-0.277,1.623-0.834,2.188c-0.556,0.565-1.28,0.848-2.174,0.848h-10.773
		c-0.893,0-1.627-0.282-2.201-0.848c-0.574-0.564-0.861-1.294-0.861-2.188V28.902h3.801V39.43h9.242V29.23l-11.813-14.273
		c-0.82-0.984-1.23-2.069-1.23-3.254V3.035c0-0.893,0.287-1.622,0.861-2.188C462.478,0.283,463.212,0,464.105,0h10.773
		c0.894,0,1.618,0.283,2.174,0.848c0.557,0.565,0.834,1.294,0.834,2.188v9.953h-3.801V3.363h-9.242v9.023L476.71,26.66
		c0.784,0.948,1.176,2.015,1.176,3.199V39.758z"/>
	<path d="M488.632,42.793h-3.801V0h3.801V42.793z"/>
	<path d="M513.406,42.793h-2.625l-11.43-31.473v31.473h-3.582V0h2.844l11.211,30.926V0h3.582V42.793z"/>
	<path d="M534.296,42.793h-14.055V0h13.891v3.363h-10.09v15.969h9.188v3.418h-9.188v16.68h10.254V42.793z"/>
	<path d="M556.91,39.758c0,0.894-0.277,1.623-0.834,2.188c-0.556,0.565-1.28,0.848-2.174,0.848h-10.773
		c-0.893,0-1.627-0.282-2.201-0.848c-0.574-0.564-0.861-1.294-0.861-2.188V28.902h3.801V39.43h9.242V29.23l-11.813-14.273
		c-0.82-0.984-1.23-2.069-1.23-3.254V3.035c0-0.893,0.287-1.622,0.861-2.188C541.501,0.283,542.236,0,543.128,0h10.773
		c0.894,0,1.618,0.283,2.174,0.848c0.557,0.565,0.834,1.294,0.834,2.188v9.953h-3.801V3.363h-9.242v9.023l11.867,14.273
		c0.784,0.948,1.176,2.015,1.176,3.199V39.758z"/>
	<path d="M580.316,39.758c0,0.894-0.277,1.623-0.834,2.188c-0.556,0.565-1.28,0.848-2.174,0.848h-10.773
		c-0.893,0-1.627-0.282-2.201-0.848c-0.574-0.564-0.861-1.294-0.861-2.188V28.902h3.801V39.43h9.242V29.23l-11.813-14.273
		c-0.82-0.984-1.23-2.069-1.23-3.254V3.035c0-0.893,0.287-1.622,0.861-2.188C564.908,0.283,565.642,0,566.535,0h10.773
		c0.894,0,1.618,0.283,2.174,0.848c0.557,0.565,0.834,1.294,0.834,2.188v9.953h-3.801V3.363h-9.242v9.023L579.14,26.66
		c0.784,0.948,1.176,2.015,1.176,3.199V39.758z"/>
	<path d="M590.351,42.793h-4.156V37.98h4.156V42.793z"/>
	<path d="M0,51.297v-2.789h268.57v2.789H0z"/>
	<path d="M325.062,51.297v-2.789h267.859v2.789H325.062z"/>
</g>
</svg>
