<?xml version="1.0" encoding="utf-8"?>
<!-- Generator: Adobe Illustrator 16.0.3, SVG Export Plug-In . SVG Version: 6.00 Build 0)  -->
<!DOCTYPE svg PUBLIC "-//W3C//DTD SVG 1.1//EN" "http://www.w3.org/Graphics/SVG/1.1/DTD/svg11.dtd">
<svg version="1.1" id="Capa_1" xmlns="http://www.w3.org/2000/svg" xmlns:xlink="http://www.w3.org/1999/xlink" x="0px" y="0px"
	 width="16.353px" height="13.281px" viewBox="49.318 39.026 16.353 13.281" enable-background="new 49.318 39.026 16.353 13.281"
	 xml:space="preserve">
<g>
	<path d="M63.99,42.336C64,42.481,64,42.627,64,42.772c0,4.431-3.372,9.535-9.535,9.535c-1.898,0-3.662-0.55-5.146-1.505
		c0.27,0.031,0.529,0.042,0.81,0.042c1.566,0,3.009-0.529,4.161-1.432c-1.475-0.031-2.709-0.996-3.135-2.324
		c0.208,0.03,0.416,0.052,0.634,0.052c0.301,0,0.602-0.042,0.882-0.114c-1.535-0.312-2.688-1.66-2.688-3.289
		c0-0.011,0-0.031,0-0.042c0.446,0.249,0.965,0.405,1.515,0.426c-0.902-0.602-1.494-1.629-1.494-2.791
		c0-0.623,0.166-1.193,0.457-1.691c1.649,2.033,4.13,3.361,6.91,3.507c-0.052-0.249-0.083-0.509-0.083-0.768
		c0-1.847,1.494-3.352,3.352-3.352c0.965,0,1.836,0.404,2.448,1.059c0.758-0.146,1.484-0.426,2.128-0.81
		c-0.25,0.778-0.778,1.432-1.474,1.847c0.674-0.072,1.328-0.259,1.93-0.519C65.215,41.268,64.644,41.859,63.99,42.336z"/>
</g>
</svg>
