<?xml version="1.0" encoding="utf-8"?>
<!-- Generator: Adobe Illustrator 16.0.3, SVG Export Plug-In . SVG Version: 6.00 Build 0)  -->
<!DOCTYPE svg PUBLIC "-//W3C//DTD SVG 1.1//EN" "http://www.w3.org/Graphics/SVG/1.1/DTD/svg11.dtd">
<svg version="1.1" id="Capa_1" xmlns="http://www.w3.org/2000/svg" xmlns:xlink="http://www.w3.org/1999/xlink" x="0px" y="0px"
	 width="90.708px" height="90.708px" viewBox="549.921 375.591 90.708 90.708"
	 enable-background="new 549.921 375.591 90.708 90.708" xml:space="preserve">
<g>
	<path d="M627.3,394.858c-1.218-0.522-2.573-0.28-3.523,0.625l-13.582,12.536v-10.414c0-3.253-2.647-5.901-5.901-5.901H567.16
		c-3.253,0-5.901,2.647-5.901,5.901v27.768c0,3.153,2.565,5.719,5.718,5.719h17.634l-8.07,17.4c-0.277,0.598-0.018,1.308,0.58,1.585
		c0.163,0.076,0.333,0.111,0.502,0.111c0.449,0,0.88-0.257,1.083-0.691l7.775-16.763l7.774,16.763
		c0.202,0.435,0.632,0.691,1.083,0.691c0.168,0,0.339-0.035,0.501-0.111c0.598-0.277,0.858-0.987,0.58-1.585l-8.069-17.4h15.671
		c3.403,0,6.174-2.771,6.174-6.176v-9.55l13.511,12.913c0.634,0.632,1.447,0.964,2.287,0.964c0.422,0,0.848-0.082,1.262-0.253
		c1.238-0.51,2.036-1.707,2.036-3.051V397.89C629.291,396.547,628.528,395.385,627.3,394.858z M607.807,424.915
		c0,2.089-1.698,3.788-3.786,3.788h-17.496c-0.002,0-0.005,0-0.007,0h-0.073c-0.003,0-0.008,0-0.012,0h-19.456
		c-1.837,0-3.331-1.494-3.331-3.331v-27.768c0-1.937,1.577-3.514,3.514-3.514h37.133c1.937,0,3.514,1.577,3.514,3.514V424.915z
		 M626.904,425.938c0,0.57-0.426,0.79-0.558,0.843c-0.162,0.068-0.582,0.182-0.958-0.196l-14.931-14.268
		c-0.174-0.175-0.267-0.41-0.263-0.66c0.003-0.25,0.104-0.48,0.271-0.64l14.943-13.792c0.201-0.192,0.413-0.249,0.591-0.249
		c0.155,0,0.285,0.044,0.359,0.075c0.127,0.055,0.544,0.278,0.544,0.839V425.938z"/>
	<path d="M582.906,410.47c0.652-1.135,1.03-2.447,1.03-3.847c0-4.278-3.48-7.758-7.758-7.758c-4.277,0-7.758,3.48-7.758,7.758
		s3.48,7.758,7.758,7.758c2.014,0,3.845-0.777,5.225-2.04l1.69,1.69c0.233,0.233,0.538,0.35,0.844,0.35
		c0.305,0,0.611-0.117,0.844-0.35c0.467-0.467,0.467-1.221,0-1.688L582.906,410.47z M576.178,411.994
		c-2.961,0-5.371-2.41-5.371-5.371s2.41-5.371,5.371-5.371c2.961,0,5.371,2.41,5.371,5.371c0,0.734-0.149,1.434-0.417,2.072
		l-2.319-2.319c-0.467-0.467-1.221-0.467-1.688,0s-0.467,1.221,0,1.688l2.579,2.58C578.758,411.474,577.533,411.994,576.178,411.994
		z"/>
</g>
</svg>
