<?xml version="1.0" encoding="utf-8"?>
<!-- Generator: Adobe Illustrator 16.0.3, SVG Export Plug-In . SVG Version: 6.00 Build 0)  -->
<!DOCTYPE svg PUBLIC "-//W3C//DTD SVG 1.1//EN" "http://www.w3.org/Graphics/SVG/1.1/DTD/svg11.dtd">
<svg version="1.1" id="レイヤー_1" xmlns="http://www.w3.org/2000/svg" xmlns:xlink="http://www.w3.org/1999/xlink" x="0px"
	 y="0px" width="68.031px" height="61.034px" viewBox="561.259 390.427 68.031 61.034"
	 enable-background="new 561.259 390.427 68.031 61.034" xml:space="preserve">
<path d="M626.585,411.765v-16.537c0-2.647-2.153-4.801-4.801-4.801h-55.724c-2.647,0-4.801,2.154-4.801,4.801v33.688
	c0,2.646,2.154,4.801,4.801,4.801h15.792l-1.808,1.945h-2.709c-0.615,0-1.114,0.5-1.114,1.115c0,0.616,0.499,1.115,1.114,1.115
	h15.513v10.752c0,1.553,1.264,2.816,2.816,2.816h11.985c1.554,0,2.817-1.264,2.817-2.816v-2.265h15.004
	c2.105,0,3.818-1.714,3.818-3.82v-27.141C629.291,413.7,628.151,412.243,626.585,411.765L626.585,411.765z M627.062,415.419v0.305
	h-25.641v-0.305c0-0.877,0.714-1.591,1.591-1.591h22.46C626.348,413.828,627.062,414.542,627.062,415.419z M607.651,424.838h-6.229
	v-6.885h25.641v22.072h-16.594v-12.371C610.468,426.102,609.205,424.838,607.651,424.838L607.651,424.838z M608.239,429.12h-13.16
	v-1.465c0-0.324,0.264-0.589,0.587-0.589h11.984c0.324,0,0.588,0.265,0.588,0.589V429.12L608.239,429.12z M624.356,396.343v15.255
	h-21.344c-2.106,0-3.82,1.714-3.82,3.82v9.419h-3.526c-1.552,0-2.814,1.262-2.816,2.813h-29.361v-31.307H624.356L624.356,396.343z
	 M595.079,431.35h13.159v13.601h-13.159V431.35z M566.061,392.657h55.724c1.018,0,1.897,0.597,2.313,1.457h-60.352
	C564.163,393.253,565.042,392.657,566.061,392.657L566.061,392.657z M563.679,429.881h29.171v1.606h-26.789
	C564.983,431.487,564.061,430.821,563.679,429.881z M583.089,435.662l1.808-1.945h7.953v1.945H583.089z M607.651,449.232h-11.985
	c-0.323,0-0.587-0.264-0.587-0.588v-1.465h13.159v1.465C608.238,448.969,607.975,449.232,607.651,449.232z M625.472,444.15h-15.004
	v-1.896h16.593v0.305C627.061,443.438,626.348,444.15,625.472,444.15z"/>
</svg>
